<svg width="237" height="41" viewBox="0 0 237 41" fill="none" xmlns="http://www.w3.org/2000/svg">
<rect x="0.376587" y="9.95422" width="43.1707" height="24.8854" rx="12.4427" fill="white"/>
<path d="M33.3838 1.29803C34.053 1.46159 34.5116 2.06887 34.5116 2.75781V10.9496H9.41232V2.75781C9.41232 2.06887 9.87087 1.46159 10.5401 1.29803C13.9244 0.470934 17.8184 0 21.962 0C26.1055 0 29.9995 0.470934 33.3838 1.29803Z" fill="white"/>
<path fill-rule="evenodd" clip-rule="evenodd" d="M37.2546 12.5565L38.0199 7.63647L38.6126 7.72648L37.8473 12.6465L37.2546 12.5565Z" fill="white"/>
<path fill-rule="evenodd" clip-rule="evenodd" d="M38.4556 12.9535L40.9259 11.1564L41.2814 11.637L38.8111 13.4341L38.4556 12.9535Z" fill="white"/>
<ellipse rx="1.50381" ry="1.49525" transform="matrix(0.988724 0.149762 -0.154079 0.988061 38.3914 7.19028)" fill="white"/>
<ellipse rx="1.50381" ry="1.49525" transform="matrix(0.988724 0.149762 -0.154079 0.988061 41.9029 10.7463)" fill="white"/>
<ellipse cx="8.70612" cy="30.8779" rx="1.00397" ry="0.995415" fill="#DFD8FF"/>
<ellipse cx="35.2296" cy="30.8743" rx="1.00397" ry="0.995416" fill="#DFD8FF"/>
<mask id="mask0" mask-type="alpha" maskUnits="userSpaceOnUse" x="2" y="11" width="40" height="22">
<path fill-rule="evenodd" clip-rule="evenodd" d="M12.8364 11.9451C7.06398 11.9451 2.38452 16.6245 2.38452 22.3969C2.38452 28.1693 7.06397 32.8488 12.8364 32.8488H31.0875C36.8599 32.8488 41.5394 28.1693 41.5394 22.3969C41.5394 16.6245 36.8599 11.9451 31.0875 11.9451H12.8364ZM12.8535 13.9359C8.18057 13.9359 4.39244 17.724 4.39244 22.3969C4.39244 27.0698 8.18057 30.858 12.8535 30.858H31.0704C35.7433 30.858 39.5314 27.0698 39.5314 22.3969C39.5314 17.724 35.7433 13.9359 31.0704 13.9359H12.8535Z" fill="#DFD8FF"/>
</mask>
<g mask="url(#mask0)">
<path d="M9.21953 29.7666L34.6601 29.7091L36.3049 32.926L7.72324 33.0399L9.21953 29.7666Z" fill="#DFD8FF"/>
</g>
<path d="M31.4997 39.3649C31.4997 39.7366 31.2332 40.0554 30.8663 40.1154C28.1187 40.5646 25.1124 40.8121 21.9619 40.8121C18.8115 40.8121 15.8052 40.5646 13.0576 40.1154C12.6907 40.0554 12.4242 39.7366 12.4242 39.3649V30.8579H31.4997V39.3649Z" fill="url(#paint0_linear)"/>
<rect opacity="0.1" x="12.4242" y="30.8579" width="19.0754" height="1.01533" fill="black"/>
<mask id="mask1" mask-type="alpha" maskUnits="userSpaceOnUse" x="0" y="9" width="44" height="26">
<rect width="43.1707" height="24.8854" rx="12.4427" transform="matrix(1 0 0 -1 0.376587 34.8395)" fill="#6246E4"/>
</mask>
<g mask="url(#mask1)">
<path d="M7.40439 9.95413C7.40439 12.1531 9.18704 13.9358 11.386 13.9358H32.5379C34.7369 13.9358 36.5195 12.1531 36.5195 9.95413H7.40439Z" fill="#DFD8FF"/>
</g>
<path d="M7.40439 22.3969C7.40439 19.3733 9.85553 16.9221 12.8792 16.9221H31.0448C34.0684 16.9221 36.5195 19.3733 36.5195 22.3969C36.5195 25.4205 34.0684 27.8717 31.0447 27.8717H12.8792C9.85553 27.8717 7.40439 25.4205 7.40439 22.3969Z" fill="#DFD8FF"/>
<rect x="14.4322" y="18.9131" width="3.01191" height="4.97708" rx="1.50596" fill="#6246E4"/>
<rect x="26.4798" y="18.9131" width="3.01191" height="4.97708" rx="1.50595" fill="#6246E4"/>
<path d="M30.5794 3.29511C30.5794 2.9289 30.3206 2.61305 29.9603 2.54801C27.5033 2.10455 24.8175 1.86035 22.0038 1.86035C19.1901 1.86035 16.5043 2.10455 14.0473 2.54801C13.6869 2.61305 13.4282 2.9289 13.4282 3.29511V11.8145H30.5794V3.29511Z" fill="url(#paint1_linear)"/>
<path opacity="0.1" d="M30.5626 4.17069C27.9404 3.67586 25.039 3.401 21.9871 3.401C18.9351 3.401 16.0337 3.67586 13.4115 4.17069V12.9238H30.5626V4.17069Z" fill="black"/>
<path d="M31.4996 6.10908C31.4996 5.73731 31.2332 5.41849 30.8663 5.35851C28.1187 4.90937 25.1124 4.66187 21.9619 4.66187C18.8114 4.66187 15.8052 4.90937 13.0576 5.35851C12.6907 5.41849 12.4242 5.73731 12.4242 6.10907V13.9358H31.4996V6.10908Z" fill="url(#paint2_linear)"/>
<rect opacity="0.1" x="12.4242" y="12.9404" width="19.0754" height="1.01533" fill="black"/>
<path d="M59.7447 31.2327V14.0916H70.8619V16.6383H62.3893V21.3888H69.76V23.9355H62.3893V31.2327H59.7447Z" fill="white"/>
<path d="M85.797 24.7925C85.797 26.0985 85.5031 27.2576 84.9155 28.2697C84.3441 29.2655 83.5605 30.0491 82.5647 30.6205C81.5852 31.1918 80.4833 31.4775 79.2589 31.4775C78.0345 31.4775 76.9245 31.1918 75.9286 30.6205C74.9328 30.0491 74.1411 29.2655 73.5534 28.2697C72.982 27.2576 72.6963 26.0985 72.6963 24.7925C72.6963 23.4865 72.982 22.3356 73.5534 21.3398C74.1411 20.3277 74.9328 19.5359 75.9286 18.9646C76.9245 18.3932 78.0345 18.1075 79.2589 18.1075C80.4833 18.1075 81.5852 18.3932 82.5647 18.9646C83.5605 19.5359 84.3441 20.3277 84.9155 21.3398C85.5031 22.3356 85.797 23.4865 85.797 24.7925ZM83.2258 24.7925C83.2422 23.9273 83.0707 23.1682 82.7116 22.5152C82.3688 21.8459 81.8954 21.3317 81.2913 20.9725C80.6873 20.597 80.0098 20.4093 79.2589 20.4093C78.508 20.4093 77.8223 20.597 77.202 20.9725C76.598 21.3317 76.1164 21.8459 75.7572 22.5152C75.4144 23.1682 75.2512 23.9273 75.2675 24.7925C75.2512 25.6414 75.4144 26.4005 75.7572 27.0698C76.1164 27.7228 76.598 28.2371 77.202 28.6125C77.8223 28.988 78.508 29.1757 79.2589 29.1757C80.0098 29.1757 80.6873 28.988 81.2913 28.6125C81.8954 28.2371 82.3688 27.7228 82.7116 27.0698C83.0707 26.4005 83.2422 25.6414 83.2258 24.7925Z" fill="white"/>
<path d="M95.7445 21.0949C95.5813 21.0133 95.3772 20.948 95.1324 20.899C94.9038 20.8337 94.6589 20.8011 94.3977 20.8011C93.8753 20.8011 93.3611 20.9399 92.855 21.2174C92.349 21.4786 91.9245 21.8622 91.5817 22.3683C91.2552 22.858 91.092 23.4457 91.092 24.1314V31.2327H88.5453V18.3769H91.092V20.8011C91.4511 20.0175 91.9898 19.3727 92.7081 18.8666C93.4427 18.3605 94.21 18.1075 95.0099 18.1075C95.6139 18.1075 96.0792 18.1891 96.4057 18.3524L95.7445 21.0949Z" fill="white"/>
<path d="M104.96 18.1565C106.021 18.1565 106.87 18.4013 107.506 18.8911C108.143 19.3645 108.6 20.0175 108.878 20.8501C109.106 20.442 109.441 20.0338 109.882 19.6257C110.322 19.2013 110.837 18.8503 111.424 18.5728C112.012 18.2952 112.64 18.1565 113.31 18.1565C114.42 18.1565 115.285 18.4013 115.905 18.8911C116.526 19.3645 116.958 20.0093 117.203 20.8256C117.464 21.6255 117.595 22.5234 117.595 23.5192V31.2327H115.048V23.6661C115.048 22.7193 114.869 21.952 114.51 21.3643C114.15 20.7766 113.473 20.4828 112.477 20.4828C111.53 20.4828 110.747 20.7848 110.126 21.3888C109.522 21.9765 109.22 22.6948 109.22 23.5437V31.2327H106.674V23.6171C106.674 22.7029 106.478 21.952 106.086 21.3643C105.694 20.7766 105.049 20.4828 104.152 20.4828C103.531 20.4828 102.976 20.6215 102.486 20.899C101.997 21.1766 101.613 21.5439 101.335 22.001C101.058 22.4417 100.919 22.9396 100.919 23.4947V31.2327H98.3725V18.3769H100.919V20.4338C101.311 19.8461 101.858 19.3237 102.56 18.8666C103.278 18.3932 104.078 18.1565 104.96 18.1565Z" fill="white"/>
<path d="M135.45 14.0916C136.365 14.0916 137.205 14.3283 137.973 14.8017C138.74 15.2588 139.352 15.8873 139.809 16.6872C140.266 17.4708 140.495 18.3605 140.495 19.3563C140.495 20.3358 140.266 21.2337 139.809 22.0499C139.352 22.8499 138.74 23.4865 137.973 23.9599C137.205 24.4334 136.365 24.6701 135.45 24.6701H131.116V31.2327H128.472V14.0916H135.45ZM135.401 22.1234C135.842 22.1234 136.242 22.001 136.601 21.7561C136.96 21.4949 137.246 21.1602 137.458 20.7521C137.687 20.3277 137.801 19.8624 137.801 19.3563C137.801 18.5891 137.564 17.9443 137.091 17.4219C136.618 16.8995 136.054 16.6383 135.401 16.6383H131.116V22.1234H135.401Z" fill="white"/>
<path d="M152.001 26.1148V18.3769H154.524V31.2327H152.001V29.1757C151.626 29.7797 151.071 30.3185 150.336 30.7919C149.618 31.249 148.753 31.4775 147.741 31.4775C146.402 31.4775 145.316 31.0204 144.484 30.1062C143.651 29.1921 143.235 27.9269 143.235 26.3107V18.3769H145.757V25.6251C145.757 26.2781 145.855 26.8821 146.051 27.4371C146.263 27.9922 146.59 28.4411 147.031 28.7839C147.488 29.1104 148.067 29.2737 148.769 29.2737C149.651 29.2737 150.41 28.9962 151.046 28.4411C151.683 27.8861 152.001 27.1106 152.001 26.1148Z" fill="white"/>
<path d="M164.746 18.1075C165.889 18.1075 166.909 18.3932 167.807 18.9646C168.721 19.5196 169.44 20.3032 169.962 21.3153C170.484 22.3111 170.746 23.462 170.746 24.768C170.746 26.074 170.484 27.2331 169.962 28.2452C169.44 29.2574 168.73 30.0491 167.832 30.6205C166.934 31.1918 165.93 31.4775 164.82 31.4775C163.906 31.4775 163.073 31.2816 162.322 30.8898C161.587 30.4817 161.008 30.0246 160.583 29.5185V31.1592H158.061V13.1121H160.583V20.2379C160.959 19.6992 161.522 19.2094 162.273 18.7687C163.024 18.3279 163.848 18.1075 164.746 18.1075ZM164.403 20.4093C163.636 20.4093 162.951 20.597 162.347 20.9725C161.759 21.348 161.294 21.8704 160.951 22.5397C160.624 23.1927 160.461 23.9355 160.461 24.768C160.461 25.6006 160.624 26.3515 160.951 27.0209C161.294 27.6738 161.759 28.1962 162.347 28.588C162.951 28.9798 163.636 29.1757 164.403 29.1757C165.171 29.1757 165.848 28.9798 166.436 28.588C167.024 28.1962 167.481 27.6738 167.807 27.0209C168.15 26.3515 168.321 25.6006 168.321 24.768C168.321 23.9355 168.15 23.1927 167.807 22.5397C167.481 21.8704 167.024 21.348 166.436 20.9725C165.848 20.597 165.171 20.4093 164.403 20.4093Z" fill="white"/>
<path d="M173.485 31.2327V13.1121H176.008V31.2327H173.485Z" fill="white"/>
<path d="M181.297 15.5853C180.725 15.5853 180.301 15.4384 180.023 15.1445C179.746 14.8507 179.607 14.4671 179.607 13.9936C179.607 13.5855 179.746 13.2182 180.023 12.8917C180.301 12.5652 180.725 12.402 181.297 12.402C181.868 12.402 182.293 12.5489 182.57 12.8427C182.848 13.1366 182.986 13.5202 182.986 13.9936C182.986 14.4018 182.848 14.7691 182.57 15.0956C182.293 15.4221 181.868 15.5853 181.297 15.5853ZM182.595 31.2327H180.072V18.3769H182.595V31.2327Z" fill="white"/>
<path d="M193.842 21.7561C193.385 21.299 192.863 20.9235 192.275 20.6297C191.704 20.3358 191.173 20.1889 190.683 20.1889C190.34 20.1889 189.998 20.2297 189.655 20.3114C189.328 20.393 189.051 20.5481 188.822 20.7766C188.594 20.9888 188.479 21.3072 188.479 21.7316C188.496 22.3193 188.757 22.7356 189.263 22.9805C189.785 23.2253 190.43 23.4457 191.197 23.6416C191.867 23.8212 192.52 24.0497 193.156 24.3273C193.793 24.5885 194.315 24.9803 194.724 25.5026C195.148 26.0087 195.36 26.727 195.36 27.6575C195.36 28.4574 195.132 29.1431 194.675 29.7144C194.234 30.2858 193.654 30.7266 192.936 31.0368C192.234 31.3306 191.491 31.4775 190.708 31.4775C189.777 31.4775 188.855 31.3143 187.941 30.9878C187.043 30.645 186.276 30.0654 185.639 29.2492L187.353 27.78C187.794 28.286 188.292 28.686 188.847 28.9798C189.418 29.2574 190.112 29.3961 190.928 29.3961C191.238 29.3961 191.548 29.3471 191.859 29.2492C192.169 29.1349 192.43 28.9635 192.642 28.735C192.871 28.4901 192.985 28.1636 192.985 27.7555C192.985 27.3637 192.863 27.0617 192.618 26.8494C192.389 26.6209 192.079 26.4413 191.687 26.3107C191.295 26.1638 190.863 26.0332 190.389 25.9189C189.687 25.723 188.994 25.4863 188.308 25.2088C187.639 24.915 187.075 24.5068 186.618 23.9844C186.178 23.4457 185.957 22.7193 185.957 21.8051C185.957 21.0378 186.169 20.3848 186.594 19.8461C187.035 19.2911 187.606 18.8666 188.308 18.5728C189.01 18.2626 189.761 18.1075 190.561 18.1075C191.328 18.1075 192.161 18.2708 193.058 18.5972C193.956 18.9237 194.699 19.4461 195.287 20.1644L193.842 21.7561Z" fill="white"/>
<path d="M204.874 18.1075C206.033 18.1075 206.931 18.3442 207.568 18.8176C208.204 19.2911 208.645 19.9277 208.89 20.7276C209.151 21.5276 209.282 22.4173 209.282 23.3967V31.2327H206.759V23.5682C206.759 22.9478 206.678 22.3928 206.515 21.903C206.351 21.4133 206.074 21.0296 205.682 20.7521C205.29 20.4746 204.743 20.3603 204.041 20.4093C203.388 20.4093 202.809 20.5481 202.303 20.8256C201.797 21.1031 201.397 21.4704 201.103 21.9275C200.809 22.3846 200.662 22.8907 200.662 23.4457V31.2327H198.14V13.1121H200.662V20.4093C201.054 19.8053 201.625 19.2747 202.376 18.8176C203.127 18.3442 203.96 18.1075 204.874 18.1075Z" fill="white"/>
<path d="M223.747 29.543H223.722C223.2 30.0491 222.482 30.498 221.568 30.8898C220.653 31.2816 219.698 31.4775 218.703 31.4775C217.364 31.4775 216.18 31.2 215.152 30.645C214.14 30.0736 213.348 29.2982 212.777 28.3187C212.205 27.3229 211.92 26.1964 211.92 24.9394C211.92 23.5029 212.222 22.2785 212.826 21.2664C213.43 20.2379 214.23 19.4543 215.225 18.9156C216.221 18.3605 217.307 18.083 218.482 18.083C219.56 18.083 220.539 18.3524 221.421 18.8911C222.302 19.4135 223.004 20.1399 223.527 21.0705C224.049 22.001 224.31 23.0866 224.31 24.3273L224.286 25.4047H214.442C214.589 26.5638 215.062 27.4861 215.862 28.1718C216.678 28.8411 217.707 29.1757 218.947 29.1757C219.845 29.1757 220.572 29.0125 221.127 28.686C221.682 28.3432 222.139 28.0167 222.498 27.7065L223.747 29.543ZM218.482 20.4093C217.519 20.4093 216.678 20.6378 215.96 21.0949C215.242 21.5357 214.768 22.303 214.54 23.3967H221.739V23.2253C221.69 22.6703 221.502 22.1805 221.176 21.7561C220.866 21.3317 220.474 21.0052 220 20.7766C219.527 20.5317 219.021 20.4093 218.482 20.4093Z" fill="white"/>
<path d="M234.25 21.0949C234.087 21.0133 233.883 20.948 233.638 20.899C233.41 20.8337 233.165 20.8011 232.904 20.8011C232.381 20.8011 231.867 20.9399 231.361 21.2174C230.855 21.4786 230.43 21.8622 230.088 22.3683C229.761 22.858 229.598 23.4457 229.598 24.1314V31.2327H227.051V18.3769H229.598V20.8011C229.957 20.0175 230.496 19.3727 231.214 18.8666C231.949 18.3605 232.716 18.1075 233.516 18.1075C234.12 18.1075 234.585 18.1891 234.912 18.3524L234.25 21.0949Z" fill="white"/>
<defs>
<linearGradient id="paint0_linear" x1="21.9619" y1="30.8579" x2="21.9619" y2="40.8121" gradientUnits="userSpaceOnUse">
<stop stop-color="#FFDD85"/>
<stop offset="1" stop-color="#FCBC14"/>
</linearGradient>
<linearGradient id="paint1_linear" x1="22.0038" y1="1.86035" x2="22.0038" y2="12.5446" gradientUnits="userSpaceOnUse">
<stop stop-color="#FFDD85"/>
<stop offset="1" stop-color="#FCBC14"/>
</linearGradient>
<linearGradient id="paint2_linear" x1="21.9619" y1="4.66187" x2="21.9619" y2="14.616" gradientUnits="userSpaceOnUse">
<stop stop-color="#FFDD85"/>
<stop offset="1" stop-color="#FCBC14"/>
</linearGradient>
</defs>
</svg>
