<svg width="165" height="29" viewBox="0 0 165 29" fill="none" xmlns="http://www.w3.org/2000/svg">
<rect y="6.98865" width="29.2683" height="17.4716" rx="8.7358" fill="white"/>
<path d="M22.4439 0.928148C22.8591 1.0344 23.1424 1.41296 23.1424 1.84153V7.6875H6.12592V1.84153C6.12592 1.41296 6.40922 1.0344 6.82441 0.928148C9.13415 0.337026 11.7979 0 14.6341 0C17.4703 0 20.1341 0.337026 22.4439 0.928148Z" fill="white"/>
<path fill-rule="evenodd" clip-rule="evenodd" d="M25.002 8.81365L25.5133 5.36148L25.9227 5.42677L25.4114 8.87895L25.002 8.81365Z" fill="white"/>
<path fill-rule="evenodd" clip-rule="evenodd" d="M25.8163 9.09156L27.4889 7.83267L27.7321 8.17292L26.0595 9.43181L25.8163 9.09156Z" fill="white"/>
<ellipse rx="1.02547" ry="1.04369" transform="matrix(0.987349 0.158708 -0.145388 0.989396 25.7726 5.04794)" fill="white"/>
<ellipse rx="1.02547" ry="1.04369" transform="matrix(0.987349 0.158707 -0.145388 0.989396 28.1534 7.54486)" fill="white"/>
<ellipse cx="5.64715" cy="21.6788" rx="0.680658" ry="0.698863" fill="#DFD8FF"/>
<ellipse cx="23.6291" cy="21.6763" rx="0.680659" ry="0.698864" fill="#DFD8FF"/>
<mask id="mask0" mask-type="alpha" maskUnits="userSpaceOnUse" x="1" y="8" width="27" height="16">
<path fill-rule="evenodd" clip-rule="evenodd" d="M8.6994 8.38635C4.64669 8.38635 1.36133 11.6717 1.36133 15.7244C1.36133 19.7771 4.6467 23.0625 8.6994 23.0625H20.5689C24.6216 23.0625 27.907 19.7771 27.907 15.7244C27.907 11.6717 24.6216 8.38635 20.5689 8.38635H8.6994ZM8.66298 9.7841C5.38222 9.7841 2.72264 12.4437 2.72264 15.7244C2.72264 19.0052 5.38221 21.6648 8.66297 21.6648H20.6053C23.8861 21.6648 26.5457 19.0052 26.5457 15.7244C26.5457 12.4437 23.8861 9.7841 20.6053 9.7841H8.66298Z" fill="#DFD8FF"/>
</mask>
<g mask="url(#mask0)">
<path d="M5.99524 20.8985L23.2431 20.8582L24.3582 23.1167L4.9808 23.1966L5.99524 20.8985Z" fill="#DFD8FF"/>
</g>
<path d="M21.1004 27.6883C21.1004 27.9202 20.9349 28.1194 20.7063 28.1583C18.834 28.4775 16.7836 28.6534 14.6342 28.6534C12.4847 28.6534 10.4344 28.4775 8.56205 28.1583C8.33343 28.1194 8.16791 27.9202 8.16791 27.6883V21.6648H21.1004V27.6883Z" fill="url(#paint0_linear)"/>
<rect opacity="0.1" x="8.16791" y="21.6648" width="12.9325" height="0.712842" fill="black"/>
<mask id="mask1" mask-type="alpha" maskUnits="userSpaceOnUse" x="0" y="6" width="30" height="19">
<rect width="29.2683" height="17.4716" rx="8.7358" transform="matrix(1 0 0 -1 0 24.4602)" fill="#6246E4"/>
</mask>
<g mask="url(#mask1)">
<path d="M4.76459 6.98863C4.76459 8.53252 6.01616 9.78409 7.56004 9.78409H21.7082C23.2521 9.78409 24.5037 8.53252 24.5037 6.98863H4.76459Z" fill="#DFD8FF"/>
</g>
<path d="M4.76459 15.7244C4.76459 13.6016 6.48549 11.8807 8.60834 11.8807H20.6599C22.7828 11.8807 24.5037 13.6016 24.5037 15.7244C24.5037 17.8473 22.7828 19.5682 20.6599 19.5682H8.60834C6.48549 19.5682 4.76459 17.8473 4.76459 15.7244Z" fill="#DFD8FF"/>
<rect x="9.52911" y="13.2784" width="2.04197" height="3.49432" rx="1.02099" fill="#6246E4"/>
<rect x="17.697" y="13.2784" width="2.04198" height="3.49432" rx="1.02099" fill="#6246E4"/>
<path d="M20.4764 2.26326C20.4764 2.03493 20.316 1.83768 20.0916 1.79542C18.4164 1.47994 16.5834 1.30609 14.6625 1.30609C12.7416 1.30609 10.9086 1.47994 9.23341 1.79542C9.00903 1.83768 8.84854 2.03493 8.84854 2.26326V8.29473H20.4764V2.26326Z" fill="url(#paint1_linear)"/>
<path opacity="0.1" d="M20.4651 2.92817C18.6873 2.58076 16.7202 2.38779 14.6511 2.38779C12.582 2.38779 10.6149 2.58076 8.83716 2.92817V9.07358H20.4651V2.92817Z" fill="black"/>
<path d="M21.1003 4.23819C21.1003 4.00628 20.9348 3.80707 20.7062 3.7681C18.8339 3.44898 16.7835 3.27301 14.6341 3.27301C12.4847 3.27301 10.4343 3.44898 8.56199 3.7681C8.33337 3.80707 8.16785 4.00628 8.16785 4.23819V9.78409H21.1003V4.23819Z" fill="url(#paint2_linear)"/>
<rect opacity="0.1" x="8.16785" y="9.08524" width="12.9325" height="0.712843" fill="black"/>
<path d="M40.3179 21.4867V9.37708H48.1719V11.1762H42.1863V14.5323H47.3934V16.3315H42.1863V21.4867H40.3179ZM58.7231 16.937C58.7231 17.8596 58.5155 18.6784 58.1003 19.3935C57.6967 20.097 57.1431 20.6506 56.4396 21.0542C55.7476 21.4579 54.9691 21.6597 54.1042 21.6597C53.2392 21.6597 52.4549 21.4579 51.7514 21.0542C51.0479 20.6506 50.4886 20.097 50.0734 19.3935C49.6697 18.6784 49.4679 17.8596 49.4679 16.937C49.4679 16.0143 49.6697 15.2012 50.0734 14.4977C50.4886 13.7827 51.0479 13.2233 51.7514 12.8197C52.4549 12.416 53.2392 12.2142 54.1042 12.2142C54.9691 12.2142 55.7476 12.416 56.4396 12.8197C57.1431 13.2233 57.6967 13.7827 58.1003 14.4977C58.5155 15.2012 58.7231 16.0143 58.7231 16.937ZM56.9067 16.937C56.9182 16.3257 56.7971 15.7894 56.5434 15.3281C56.3012 14.8553 55.9667 14.492 55.54 14.2382C55.1133 13.973 54.6347 13.8403 54.1042 13.8403C53.5736 13.8403 53.0892 13.973 52.651 14.2382C52.2243 14.492 51.8841 14.8553 51.6303 15.3281C51.3881 15.7894 51.2728 16.3257 51.2843 16.937C51.2728 17.5367 51.3881 18.073 51.6303 18.5458C51.8841 19.0071 52.2243 19.3704 52.651 19.6357C53.0892 19.9009 53.5736 20.0336 54.1042 20.0336C54.6347 20.0336 55.1133 19.9009 55.54 19.6357C55.9667 19.3704 56.3012 19.0071 56.5434 18.5458C56.7971 18.073 56.9182 17.5367 56.9067 16.937ZM65.7508 14.3247C65.6354 14.2671 65.4913 14.2209 65.3183 14.1863C65.1568 14.1402 64.9838 14.1171 64.7993 14.1171C64.4302 14.1171 64.067 14.2152 63.7094 14.4112C63.3519 14.5958 63.052 14.8668 62.8099 15.2243C62.5792 15.5703 62.4639 15.9855 62.4639 16.4699V21.4867H60.6647V12.4045H62.4639V14.1171C62.7176 13.5636 63.0982 13.108 63.6056 12.7505C64.1246 12.393 64.6667 12.2142 65.2318 12.2142C65.6585 12.2142 65.9872 12.2719 66.2179 12.3872L65.7508 14.3247ZM72.2609 12.2488C73.0106 12.2488 73.6103 12.4218 74.0601 12.7678C74.5099 13.1022 74.8328 13.5636 75.0288 14.1517C75.1903 13.8634 75.4267 13.5751 75.7381 13.2868C76.0495 12.9869 76.4128 12.7389 76.828 12.5429C77.2432 12.3468 77.6872 12.2488 78.1601 12.2488C78.9443 12.2488 79.5555 12.4218 79.9938 12.7678C80.4321 13.1022 80.7377 13.5578 80.9107 14.1344C81.0952 14.6996 81.1875 15.3339 81.1875 16.0374V21.4867H79.3883V16.1412C79.3883 15.4723 79.2615 14.9302 79.0077 14.515C78.754 14.0998 78.2754 13.8922 77.5719 13.8922C76.903 13.8922 76.3494 14.1056 75.9111 14.5323C75.4844 14.9475 75.271 15.455 75.271 16.0547V21.4867H73.4719V16.1066C73.4719 15.4607 73.3335 14.9302 73.0567 14.515C72.7799 14.0998 72.3244 13.8922 71.69 13.8922C71.2518 13.8922 70.8597 13.9903 70.5137 14.1863C70.1677 14.3824 69.8967 14.6419 69.7006 14.9648C69.5045 15.2762 69.4065 15.628 69.4065 16.0201V21.4867H67.6074V12.4045H69.4065V13.8576C69.6833 13.4425 70.0697 13.0734 70.5656 12.7505C71.073 12.416 71.6381 12.2488 72.2609 12.2488ZM93.8018 9.37708C94.4476 9.37708 95.0416 9.5443 95.5836 9.87876C96.1257 10.2017 96.5582 10.6457 96.8811 11.2108C97.204 11.7644 97.3655 12.393 97.3655 13.0965C97.3655 13.7884 97.204 14.4228 96.8811 14.9994C96.5582 15.5645 96.1257 16.0143 95.5836 16.3488C95.0416 16.6832 94.4476 16.8505 93.8018 16.8505H90.7398V21.4867H88.8714V9.37708H93.8018ZM93.7672 15.0513C94.0786 15.0513 94.3611 14.9648 94.6148 14.7918C94.8686 14.6073 95.0704 14.3709 95.2203 14.0825C95.3818 13.7827 95.4625 13.454 95.4625 13.0965C95.4625 12.5544 95.2953 12.0989 94.9608 11.7298C94.6264 11.3608 94.2285 11.1762 93.7672 11.1762H90.7398V15.0513H93.7672ZM105.495 17.8711V12.4045H107.276V21.4867H105.495V20.0336C105.229 20.4603 104.837 20.8409 104.318 21.1753C103.811 21.4983 103.2 21.6597 102.484 21.6597C101.539 21.6597 100.772 21.3368 100.184 20.6909C99.5955 20.0451 99.3014 19.1513 99.3014 18.0095V12.4045H101.083V17.5251C101.083 17.9865 101.152 18.4132 101.291 18.8053C101.441 19.1974 101.671 19.5146 101.983 19.7568C102.306 19.9874 102.715 20.1028 103.211 20.1028C103.834 20.1028 104.37 19.9067 104.82 19.5146C105.27 19.1225 105.495 18.5746 105.495 17.8711ZM114.498 12.2142C115.306 12.2142 116.027 12.416 116.661 12.8197C117.307 13.2118 117.814 13.7654 118.183 14.4804C118.552 15.1839 118.737 15.997 118.737 16.9197C118.737 17.8423 118.552 18.6611 118.183 19.3762C117.814 20.0912 117.313 20.6506 116.678 21.0542C116.044 21.4579 115.335 21.6597 114.55 21.6597C113.905 21.6597 113.316 21.5213 112.786 21.2445C112.267 20.9562 111.857 20.6333 111.558 20.2758V21.4348H109.776V8.6851H111.558V13.7192C111.823 13.3387 112.221 12.9927 112.751 12.6813C113.282 12.3699 113.864 12.2142 114.498 12.2142ZM114.256 13.8403C113.714 13.8403 113.23 13.973 112.803 14.2382C112.388 14.5035 112.059 14.8725 111.817 15.3454C111.586 15.8067 111.471 16.3315 111.471 16.9197C111.471 17.5078 111.586 18.0384 111.817 18.5112C112.059 18.9725 112.388 19.3416 112.803 19.6184C113.23 19.8952 113.714 20.0336 114.256 20.0336C114.798 20.0336 115.277 19.8952 115.692 19.6184C116.107 19.3416 116.43 18.9725 116.661 18.5112C116.903 18.0384 117.024 17.5078 117.024 16.9197C117.024 16.3315 116.903 15.8067 116.661 15.3454C116.43 14.8725 116.107 14.5035 115.692 14.2382C115.277 13.973 114.798 13.8403 114.256 13.8403ZM120.707 21.4867V8.6851H122.489V21.4867H120.707ZM126.208 10.4323C125.804 10.4323 125.504 10.3285 125.308 10.121C125.112 9.91336 125.014 9.64234 125.014 9.30788C125.014 9.01955 125.112 8.76006 125.308 8.5294C125.504 8.29874 125.804 8.18341 126.208 8.18341C126.611 8.18341 126.911 8.28721 127.107 8.4948C127.303 8.7024 127.401 8.97342 127.401 9.30788C127.401 9.5962 127.303 9.8557 127.107 10.0864C126.911 10.317 126.611 10.4323 126.208 10.4323ZM127.125 21.4867H125.343V12.4045H127.125V21.4867ZM135.071 14.7918C134.748 14.4689 134.379 14.2036 133.963 13.996C133.56 13.7884 133.185 13.6847 132.839 13.6847C132.597 13.6847 132.355 13.7135 132.112 13.7711C131.882 13.8288 131.686 13.9384 131.524 14.0998C131.363 14.2498 131.282 14.4747 131.282 14.7745C131.294 15.1897 131.478 15.4838 131.836 15.6568C132.205 15.8298 132.66 15.9855 133.202 16.1239C133.675 16.2507 134.136 16.4122 134.586 16.6083C135.036 16.7928 135.405 17.0696 135.693 17.4386C135.993 17.7962 136.143 18.3036 136.143 18.961C136.143 19.5261 135.982 20.0105 135.659 20.4142C135.347 20.8178 134.938 21.1292 134.431 21.3483C133.935 21.5559 133.41 21.6597 132.856 21.6597C132.199 21.6597 131.547 21.5444 130.901 21.3137C130.267 21.0715 129.725 20.6621 129.275 20.0855L130.486 19.0475C130.798 19.405 131.149 19.6876 131.542 19.8952C131.945 20.0912 132.435 20.1893 133.012 20.1893C133.231 20.1893 133.45 20.1547 133.669 20.0855C133.889 20.0047 134.073 19.8836 134.223 19.7222C134.384 19.5492 134.465 19.3185 134.465 19.0302C134.465 18.7534 134.379 18.54 134.206 18.3901C134.044 18.2287 133.825 18.1018 133.548 18.0095C133.272 17.9057 132.966 17.8135 132.631 17.7327C132.136 17.5943 131.645 17.4271 131.161 17.231C130.688 17.0235 130.29 16.7351 129.967 16.3661C129.656 15.9855 129.5 15.4723 129.5 14.8264C129.5 14.2844 129.65 13.823 129.95 13.4425C130.261 13.0503 130.665 12.7505 131.161 12.5429C131.657 12.3238 132.187 12.2142 132.753 12.2142C133.295 12.2142 133.883 12.3295 134.517 12.5602C135.151 12.7908 135.676 13.1599 136.091 13.6674L135.071 14.7918ZM142.864 12.2142C143.683 12.2142 144.318 12.3814 144.767 12.7159C145.217 13.0503 145.528 13.5001 145.701 14.0652C145.886 14.6304 145.978 15.2589 145.978 15.9509V21.4867H144.196V16.072C144.196 15.6337 144.139 15.2416 144.023 14.8956C143.908 14.5496 143.712 14.2786 143.435 14.0825C143.158 13.8865 142.772 13.8057 142.276 13.8403C141.815 13.8403 141.405 13.9384 141.048 14.1344C140.69 14.3305 140.408 14.59 140.2 14.9129C139.993 15.2358 139.889 15.5934 139.889 15.9855V21.4867H138.107V8.6851H139.889V13.8403C140.166 13.4136 140.569 13.0388 141.1 12.7159C141.63 12.3814 142.219 12.2142 142.864 12.2142ZM156.198 20.2931H156.18C155.811 20.6506 155.304 20.9677 154.658 21.2445C154.012 21.5213 153.337 21.6597 152.634 21.6597C151.688 21.6597 150.852 21.4637 150.125 21.0715C149.41 20.6679 148.851 20.1201 148.447 19.4281C148.044 18.7246 147.842 17.9288 147.842 17.0408C147.842 16.0258 148.055 15.1609 148.482 14.4458C148.909 13.7193 149.474 13.1657 150.177 12.7851C150.881 12.393 151.648 12.1969 152.478 12.1969C153.239 12.1969 153.931 12.3872 154.554 12.7678C155.177 13.1368 155.673 13.6501 156.042 14.3074C156.411 14.9648 156.595 15.7318 156.595 16.6083L156.578 17.3694H149.624C149.728 18.1883 150.062 18.8399 150.627 19.3243C151.204 19.7971 151.93 20.0336 152.807 20.0336C153.441 20.0336 153.954 19.9182 154.346 19.6876C154.739 19.4454 155.062 19.2147 155.315 18.9956L156.198 20.2931ZM152.478 13.8403C151.798 13.8403 151.204 14.0018 150.696 14.3247C150.189 14.6361 149.854 15.1782 149.693 15.9509H154.779V15.8298C154.744 15.4377 154.612 15.0917 154.381 14.7918C154.162 14.492 153.885 14.2613 153.551 14.0998C153.216 13.9268 152.859 13.8403 152.478 13.8403ZM163.618 14.3247C163.503 14.2671 163.358 14.2209 163.185 14.1863C163.024 14.1402 162.851 14.1171 162.666 14.1171C162.297 14.1171 161.934 14.2152 161.577 14.4112C161.219 14.5958 160.919 14.8668 160.677 15.2243C160.446 15.5703 160.331 15.9855 160.331 16.4699V21.4867H158.532V12.4045H160.331V14.1171C160.585 13.5636 160.965 13.108 161.473 12.7505C161.992 12.393 162.534 12.2142 163.099 12.2142C163.526 12.2142 163.854 12.2719 164.085 12.3872L163.618 14.3247Z" fill="white"/>
<defs>
<linearGradient id="paint0_linear" x1="14.6342" y1="21.6648" x2="14.6342" y2="28.6534" gradientUnits="userSpaceOnUse">
<stop stop-color="#FFDD85"/>
<stop offset="1" stop-color="#FCBC14"/>
</linearGradient>
<linearGradient id="paint1_linear" x1="14.6625" y1="1.30609" x2="14.6625" y2="8.80731" gradientUnits="userSpaceOnUse">
<stop stop-color="#FFDD85"/>
<stop offset="1" stop-color="#FCBC14"/>
</linearGradient>
<linearGradient id="paint2_linear" x1="14.6341" y1="3.27301" x2="14.6341" y2="10.2616" gradientUnits="userSpaceOnUse">
<stop stop-color="#FFDD85"/>
<stop offset="1" stop-color="#FCBC14"/>
</linearGradient>
</defs>
</svg>